HIERARCHY
ROOT Hips
{
	OFFSET 46.037300 -14.101215 92.957703
	CHANNELS 6 Xposition Yposition Zposition Xrotation Yrotation Zrotation
	JOINT spine
	{
		OFFSET 0.000000 -0.429886 7.475601
		CHANNELS 3 Xrotation Yrotation Zrotation
		JOINT spine1
		{
			OFFSET 0.000000 -0.000002 9.923012
			CHANNELS 3 Xrotation Yrotation Zrotation
			JOINT spine2
			{
				OFFSET 0.000000 -0.000001 9.508041
				CHANNELS 3 Xrotation Yrotation Zrotation
				JOINT Neck
				{
					OFFSET 0.000000 -1.163845 24.411095
					CHANNELS 3 Xrotation Yrotation Zrotation
					JOINT Head
					{
						OFFSET 0.000000 -0.000001 7.375229
						CHANNELS 3 Xrotation Yrotation Zrotation
						End Site
						{
							OFFSET 0.000000 5.887407 17.852203
						}
					}
				}
				JOINT RightShoulder
				{
					OFFSET -4.003559 0.557467 10.267906
					CHANNELS 3 Xrotation Yrotation Zrotation
					JOINT RightArm
					{
						OFFSET 0.000000 -0.000003 13.467300
						CHANNELS 3 Xrotation Yrotation Zrotation
						JOINT RightArmRoll
						{
							OFFSET 0.000000 -0.000001 6.798569
							CHANNELS 3 Xrotation Yrotation Zrotation
							JOINT RightForeArm
							{
								OFFSET 0.000000 -0.000003 19.801804
								CHANNELS 3 Xrotation Yrotation Zrotation
								JOINT RightForeArmRoll
								{
									OFFSET 0.000000 -0.000001 7.629044
									CHANNELS 3 Xrotation Yrotation Zrotation
									JOINT RightHand
									{
										OFFSET 0.000000 -0.000003 15.309799
										CHANNELS 3 Xrotation Yrotation Zrotation
										End Site
										{
											OFFSET 0.000000 0.000000 0.100006
										}
									}
								}
							}
						}
					}
				}
				JOINT LeftShoulder
				{
					OFFSET 4.003559 0.557467 10.267906
					CHANNELS 3 Xrotation Yrotation Zrotation
					JOINT LeftArm
					{
						OFFSET 0.000000 -0.000003 13.467300
						CHANNELS 3 Xrotation Yrotation Zrotation
						JOINT LeftArmRoll
						{
							OFFSET 0.000000 -0.000001 6.798569
							CHANNELS 3 Xrotation Yrotation Zrotation
							JOINT LeftForeArm
							{
								OFFSET 0.000000 -0.000003 19.801804
								CHANNELS 3 Xrotation Yrotation Zrotation
								JOINT LeftForeArmRoll
								{
									OFFSET 0.000000 -0.000001 7.629044
									CHANNELS 3 Xrotation Yrotation Zrotation
									JOINT LeftHand
									{
										OFFSET 0.000000 -0.000003 15.309799
										CHANNELS 3 Xrotation Yrotation Zrotation
										End Site
										{
											OFFSET 0.000000 0.000000 0.100006
										}
									}
								}
							}
						}
					}
				}
			}
		}
	}
	JOINT RightUpLeg
	{
		OFFSET -6.626091 1.019270 -1.215050
		CHANNELS 3 Xrotation Yrotation Zrotation
		JOINT RightUpLegRoll
		{
			OFFSET 0.000000 -0.000003 17.951698
			CHANNELS 3 Xrotation Yrotation Zrotation
			JOINT RightLeg
			{
				OFFSET 0.000000 0.000004 -22.230400
				CHANNELS 3 Xrotation Yrotation Zrotation
				JOINT RightLegRoll
				{
					OFFSET 0.000000 -0.000004 22.303200
					CHANNELS 3 Xrotation Yrotation Zrotation
					JOINT RightFoot
					{
						OFFSET 0.000000 -0.000003 18.563599
						CHANNELS 3 Xrotation Yrotation Zrotation
						JOINT RightToeBase
						{
							OFFSET 0.000000 -0.000003 15.518295
							CHANNELS 3 Xrotation Yrotation Zrotation
							End Site
							{
								OFFSET 0.006577 0.866262 7.515381
							}
						}
					}
				}
			}
		}
	}
	JOINT LeftUpLeg
	{
		OFFSET 6.626091 1.019270 -1.215050
		CHANNELS 3 Xrotation Yrotation Zrotation
		JOINT LeftUpLegRoll
		{
			OFFSET 0.000000 -0.000003 17.951797
			CHANNELS 3 Xrotation Yrotation Zrotation
			JOINT LeftLeg
			{
				OFFSET 0.000000 -0.000004 22.230293
				CHANNELS 3 Xrotation Yrotation Zrotation
				JOINT LeftLegRoll
				{
					OFFSET 0.000000 -0.000003 22.509308
					CHANNELS 3 Xrotation Yrotation Zrotation
					JOINT LeftFoot
					{
						OFFSET 0.000000 -0.000004 18.357498
						CHANNELS 3 Xrotation Yrotation Zrotation
						JOINT LeftToeBase
						{
							OFFSET 0.000000 -0.000002 15.518295
							CHANNELS 3 Xrotation Yrotation Zrotation
							End Site
							{
								OFFSET -0.029476 0.866262 7.515381
							}
						}
					}
				}
			}
		}
	}
}
MOTION
Frames: 8
Frame Time: 0.041667
44.981400 -14.477121 93.020699 1.126507 -3.190402 75.523902 -0.420707 -0.029705 0.210930 3.161553 -0.074096 0.421843 4.806614 -0.069037 0.422720 0.862323 13.993978 -4.640091 6.209193 -15.130737 -4.461955 -4.908809 -61.035677 -5.991474 132.209431 -22.948264 110.242498 -0.000005 0.000004 0.000014 0.234875 -31.153787 -2.409667 0.000000 -0.000000 -3.249110 -5.000070 -8.000542 0.000067 -9.260993 73.385759 11.798328 85.956660 46.739353 -73.537034 -0.000003 0.000016 0.000006 4.512398 29.355538 -2.376047 -0.000001 -0.000014 3.000019 -5.000162 8.000396 -0.000100 -2.259308 -178.680030 0.003740 -179.999991 0.000005 -1.104995 165.753542 -2.087820 -0.847973 -0.000009 0.000002 0.291350 72.478327 6.791273 2.155689 25.465192 -7.367860 -0.004852 -5.379393 -179.645573 5.417128 -0.000005 -0.000004 -1.035381 -12.338345 -1.108449 0.279094 0.000008 -0.000005 0.099390 65.611029 -7.020436 -2.033179 26.412435 7.325321 -1.404667 
44.978004 -14.541015 93.017891 1.133486 -3.189152 75.585168 -0.420489 -0.028225 0.218046 3.161993 -0.070415 0.436148 4.807052 -0.065185 0.436982 0.851773 13.994415 -4.641014 6.217957 -15.140349 -4.461654 -4.867329 -61.051011 -5.944621 132.293374 -23.168948 109.878121 -0.000002 0.000003 0.000013 0.153806 -31.379412 -2.095546 0.000001 -0.000004 -3.232478 -5.000067 -8.000538 0.000067 -9.376816 73.348486 11.922791 85.923254 46.884423 -73.457359 -0.000005 0.000015 0.000007 4.745973 29.353547 -2.432156 -0.000002 -0.000015 3.000021 -5.000160 8.000395 -0.000100 -2.235075 -178.699988 0.005214 -179.999991 0.000005 -1.104997 165.767175 -2.106366 -0.848154 -0.000009 0.000001 0.291470 72.501789 6.790742 2.155682 25.465196 -7.367858 -0.004851 -5.453044 -179.661528 5.412841 -0.000006 -0.000004 -1.035501 -12.449105 -1.117216 0.280044 0.000008 -0.000005 0.098614 65.609581 -7.021264 -2.031551 26.448641 7.324187 -1.456563 
44.970200 -14.591918 93.013000 1.140385 -3.188171 75.646128 -0.420309 -0.026752 0.225373 3.162343 -0.066733 0.450911 4.807402 -0.061327 0.451696 0.843403 13.995742 -4.642401 6.225685 -15.151180 -4.461607 -4.824949 -61.065853 -5.896671 132.375514 -23.390533 109.518538 -0.000005 0.000003 0.000014 0.031722 -31.611492 -1.781958 -0.000001 0.000001 -3.215287 -5.000068 -8.000537 0.000071 -9.490033 73.311863 12.044426 85.886043 47.029438 -73.370316 -0.000007 0.000015 0.000009 4.985125 29.354032 -2.489963 -0.000000 -0.000017 3.000019 -5.000158 8.000394 -0.000096 -2.210229 -178.719959 0.006871 -179.999991 0.000005 -1.104998 165.780999 -2.125883 -0.848553 -0.000010 0.000002 0.291626 72.525544 6.790152 2.155848 25.465194 -7.367860 -0.004851 -5.526115 -179.676500 5.409025 -0.000004 -0.000004 -1.035589 -12.558969 -1.126532 0.280896 0.000008 -0.000005 0.097959 65.607416 -7.022110 -2.029875 26.485633 7.322964 -1.509564 
44.963902 -14.652621 93.003998 1.147215 -3.187362 75.706903 -0.420161 -0.025284 0.232848 3.162643 -0.063051 0.465996 4.807692 -0.057465 0.466735 0.836560 13.997768 -4.644104 6.232712 -15.162926 -4.461749 -4.781909 -61.080415 -5.847924 132.455796 -23.613791 109.161613 -0.000005 0.000003 0.000013 -0.119532 -31.848745 -1.469570 -0.000003 0.000001 -3.197709 -5.000073 -8.000539 0.000068 -9.601317 73.275649 12.163988 85.846025 47.174658 -73.278019 -0.000003 0.000016 0.000008 5.228182 29.356327 -2.549000 0.000000 -0.000017 3.000017 -5.000157 8.000394 -0.000102 -2.184959 -178.739917 0.008648 -179.999991 0.000005 -1.104996 165.795138 -2.144437 -0.848685 -0.000009 0.000001 0.291808 72.549340 6.789628 2.155923 25.465196 -7.367861 -0.004850 -5.598782 -179.692469 5.405714 -0.000006 -0.000004 -1.035669 -12.668231 -1.136228 0.281660 0.000008 -0.000005 0.097382 65.604821 -7.022935 -2.028318 26.523230 7.321654 -1.563357 
44.919800 -14.697922 92.994698 1.153945 -3.186653 75.767364 -0.420029 -0.023819 0.240406 3.162903 -0.059370 0.481265 4.807961 -0.053600 0.481957 0.830590 14.000187 -4.645993 6.239327 -15.175183 -4.461987 -4.738488 -61.094765 -5.798731 132.534971 -23.838204 108.806949 -0.000001 0.000004 0.000014 -0.287948 -32.090080 -1.158770 -0.000000 0.000001 -3.179908 -5.000070 -8.000538 0.000067 -9.711347 73.239729 12.282222 85.804081 47.319755 -73.182451 -0.000003 0.000015 0.000009 5.473490 29.359681 -2.608797 0.000001 -0.000015 3.000020 -5.000160 8.000396 -0.000099 -2.159436 -178.758878 0.010451 -179.999991 0.000005 -1.104996 165.809262 -2.163961 -0.848056 -0.000008 0.000002 0.292005 72.573349 6.789071 2.155880 25.465197 -7.367863 -0.004852 -5.671223 -179.707441 5.402569 -0.000006 -0.000004 -1.035741 -12.777200 -1.146155 0.282355 0.000008 -0.000005 0.096848 65.602130 -7.023789 -2.026677 26.561026 7.320283 -1.617574 
44.919201 -14.758820 92.994293 1.160582 -3.185956 75.827913 -0.419901 -0.022355 0.247988 3.163152 -0.055688 0.496578 4.808211 -0.049735 0.497225 0.824838 14.002704 -4.647934 6.245837 -15.187534 -4.462249 -4.694947 -61.109101 -5.749387 132.613505 -24.063986 108.453616 -0.000001 0.000005 0.000016 -0.461396 -32.333760 -0.849740 0.000000 0.000001 -3.162050 -5.000069 -8.000538 0.000067 -9.820671 73.203748 12.399703 85.761037 47.464873 -73.085476 -0.000004 0.000015 0.000009 5.719384 29.363243 -2.668835 -0.000001 -0.000016 3.000019 -5.000157 8.000399 -0.000097 -2.133856 -178.778849 0.012291 -179.999991 0.000005 -1.104997 165.823497 -2.182521 -0.848168 -0.000009 0.000002 0.292208 72.597241 6.788535 2.155948 25.465196 -7.367858 -0.004850 -5.743598 -179.723410 5.399610 -0.000006 -0.000004 -1.035812 -12.886071 -1.156130 0.283009 0.000008 -0.000005 0.096328 65.599240 -7.024652 -2.025050 26.598824 7.318844 -1.671891 
44.921600 -14.808521 92.992302 1.167124 -3.185177 75.888463 -0.419760 -0.020889 0.255527 3.163422 -0.052005 0.511802 4.808481 -0.045870 0.512400 0.818648 14.004924 -4.649791 6.252550 -15.199684 -4.462459 -4.651549 -61.123540 -5.700225 132.691246 -24.291899 108.099478 -0.000007 0.000004 0.000015 -0.627589 -32.577936 -0.542335 -0.000001 -0.000001 -3.144301 -5.000069 -8.000540 0.000068 -9.929968 73.167596 12.517181 85.717986 47.609888 -72.989355 -0.000006 0.000017 0.000008 5.964209 29.366409 -2.728612 -0.000002 -0.000014 3.000021 -5.000162 8.000395 -0.000100 -2.108393 -178.798807 0.014077 -179.999991 0.000005 -1.104996 165.837717 -2.202051 -0.848511 -0.000009 0.000002 0.292402 72.621139 6.787977 2.156011 25.465197 -7.367858 -0.004851 -5.816101 -179.738354 5.396500 -0.000005 -0.000004 -1.035890 -12.995138 -1.166012 0.283640 0.000008 -0.000005 0.095782 65.596543 -7.025504 -2.023308 26.636510 7.317337 -1.725995 
44.905701 -14.864515 92.988396 1.173563 -3.184242 75.949204 -0.419604 -0.019419 0.262958 3.163732 -0.048323 0.526794 4.808790 -0.042008 0.527349 0.811369 14.006848 -4.651402 6.259779 -15.211125 -4.462531 -4.608530 -61.138137 -5.651526 132.769370 -24.520791 107.745285 -0.000001 0.000003 0.000015 -0.774092 -32.820418 -0.236163 -0.000000 -0.000002 -3.126827 -5.000072 -8.000542 0.000068 -10.039787 73.130945 12.635245 85.675830 47.754757 -72.895897 -0.000004 0.000015 0.000008 6.206279 29.368242 -2.787603 0.000004 -0.000015 3.000021 -5.000159 8.000395 -0.000100 -2.083242 -178.818778 0.015746 -179.999991 0.000005 -1.104996 165.851746 -2.220600 -0.848610 -0.000009 0.000002 0.292578 72.644949 6.787438 2.156085 25.465196 -7.367861 -0.004850 -5.888883 -179.754296 5.393281 -0.000005 -0.000004 -1.035969 -13.104608 -1.175624 0.284275 0.000008 -0.000005 0.095181 65.594063 -7.026348 -2.021749 26.673888 7.315778 -1.779546 
